<?xml version="1.0" encoding="UTF-8"?>
<svg id="Capa_1" xmlns="http://www.w3.org/2000/svg" version="1.1" viewBox="0 0 1080 1080">
  <!-- Generator: Adobe Illustrator 29.5.1, SVG Export Plug-In . SVG Version: 2.1.0 Build 141)  -->
  <defs>
    <style>
      .st0 {
        fill: #282112;
      }

      .st1 {
        fill: #bd812f;
      }
    </style>
  </defs>
  <rect class="st1" x="-14.78" y="-14.82" width="1109.56" height="1109.64"/>
  <g>
    <path class="st0" d="M484.38,408.94c-11.09,7.27-16.37,25.6-15.85,54.98-.19,6.8.91,14.18,3.29,22.12,2.38,7.94,5.41,11.99,9.09,12.13,5.14.09,20.91-27.52,47.33-82.83-17.99-11.74-32.61-13.87-43.85-6.39Z"/>
    <path class="st0" d="M764.52,363.83c-11.09,7.27-16.37,25.6-15.85,54.98-.19,6.8.91,14.17,3.29,22.12,2.38,7.94,5.41,11.98,9.09,12.12,5.14.09,20.91-27.52,47.33-82.83-17.99-11.75-32.61-13.87-43.85-6.39Z"/>
    <path class="st0" d="M681.26,443.39c-11.71,11.4-19.42,20.33-23.14,26.78-3.72,6.45-4.75,13.12-3.09,19.99,1.34,4.91,5.15,8.14,11.44,9.69,6.29,1.55,12.5-.18,18.65-5.2,3.82-3.54,6.16-8.31,7.03-14.31.86-5.99.08-12-2.35-18.01-2.14-5.33-4.99-11.64-8.54-18.94Z"/>
    <path class="st0" d="M809.48,648.62c-.05-.9-.11-1.53-.17-1.89-.23-7.1-1.32-12.73-3.27-16.91-1.95-4.17-4.56-6.17-7.83-6.01-3.65.04-6.22,2.28-7.7,6.73-2.24,6.58.36,11.93,7.8,16.04,2.22,1.29,4.68,2.36,7.38,3.2,1.54.49,2.77.75,3.69.78.12-.39.16-1.03.1-1.94Z"/>
    <path class="st0" d="M943.89,816.83l-30.58-428.17c-7.31,15.67-14.46,29.25-21.43,40.72-13.38,22.01-26.07,33.89-38.05,35.63-3.21.52-6.46.22-9.75-.9-16.51-5.94-22.93-34.46-19.27-85.56l-6.76,14.26c-3,6.34-5.39,11.39-7.17,15.15-1.77,3.76-4.11,8.58-7.01,14.44-2.9,5.86-5.37,10.66-7.43,14.37-2.06,3.72-4.45,7.85-7.2,12.41-2.74,4.56-5.21,8.26-7.41,11.08-2.2,2.83-4.56,5.53-7.06,8.14-2.51,2.6-4.91,4.45-7.21,5.55-2.29,1.1-4.54,1.65-6.74,1.64-19.51-.7-30.31-18.91-32.4-54.62-.49-7.61-.41-14.75.18-21.45l-31.85,29.3c-.18.03-.26.09-.25.17.01.09-.07.15-.25.18,8.35,15.49,13.59,29.83,15.71,43.04,1.24,6.57.41,13.29-2.52,20.17-2.92,6.87-6.66,12.05-11.22,15.53-9.16,6.78-18.06,10.32-26.7,10.61-8.65.29-16.19-1.65-22.63-5.83-6.44-4.18-10.65-9.59-12.63-16.22-2.86-9.79-1.68-20.37,3.54-31.73,5.22-11.37,15.48-24.59,30.81-39.68-3.62-5.65-10.52-15.72-20.69-30.17-13.26,32.96-25.99,59.51-38.2,79.59-13.38,22.01-26.07,33.89-38.05,35.63-3.21.52-6.46.22-9.75-.9-16.51-5.94-22.93-34.46-19.27-85.56l-6.76,14.26c-3,6.34-5.39,11.39-7.17,15.15-1.77,3.76-4.11,8.58-7.01,14.45-2.9,5.86-5.38,10.65-7.43,14.37-2.06,3.72-4.46,7.85-7.2,12.41-2.74,4.56-5.21,8.26-7.41,11.08-2.2,2.83-4.55,5.53-7.06,8.14-2.51,2.6-4.91,4.45-7.2,5.55-2.29,1.1-4.54,1.64-6.74,1.64-15.88-.57-25.98-12.74-30.33-36.49-2.08,2.45-4.09,4.77-6,6.93-6.04,6.82-13.41,14.46-22.11,22.91-8.7,8.45-17.68,15.48-26.94,21.08-9.25,5.61-18.54,9.62-27.85,12.03-12.46,3.29-23.9,2.75-34.3-1.61-13.33-5.54-24.16-15.97-32.48-31.28-8.32-15.31-13.33-32.53-15.04-51.65-1.71-19.12-.12-37.4,4.76-54.84,6.3-22.24,16.39-41.12,30.27-56.62,13.88-15.5,29.77-23.96,47.66-25.38,13.91-1.14,25.61,2.51,35.12,10.95,9.5,8.44,12.66,20.97,9.48,37.59-4.8,24.75-21.07,44.2-48.8,58.36l-9.66-17.38c20.83-11.59,33.7-24.83,38.62-39.71,3.2-9.66,2.76-17.23-1.32-22.71-4.08-5.47-9.97-7.91-17.65-7.31-7.68.59-15.89,3.33-24.62,8.22-13.27,8.54-23.59,20.82-30.99,36.83-7.39,16.01-11.52,32.19-12.36,48.52-.85,16.33.62,31.7,4.4,46.09,2.39,9.13,6.21,17.57,11.49,25.32,5.28,7.76,11.72,13.12,19.34,16.11,11.12,4.25,23.48,2.62,37.1-4.88,11.11-5.99,22.93-14.72,35.45-26.15,12.52-11.44,21.6-20.41,27.24-26.9,2.81-3.24,5.11-5.93,6.89-8.06-.51-16.51,1.63-30.8,6.47-42.81,5.36-13.31,13.36-22.74,23.99-28.29,19.02-8.01,38.47-5.46,58.32,7.63,8.02-17.21,12.64-27.2,13.84-29.95l18.86,6.29c-2.82,10.89-4.86,24.39-6.1,40.51-2.79,42.9-.51,67.89,6.85,74.94.89.95,2.13,1.3,3.74,1.04,6.07-.97,15.13-12,27.21-33.06,12.07-21.07,24.36-47.34,36.85-78.82h.01s0,0,0,0l19.03-9.65c12.08,17.09,21.6,31.29,28.55,42.62l53.14-46.95c5.06-8.86,11.67-15.43,19.85-19.7,19.02-8.01,38.47-5.47,58.32,7.63,8.02-17.21,12.64-27.2,13.84-29.95l18.86,6.3c-2.82,10.88-4.86,24.39-6.1,40.51-2.79,42.91-.51,67.89,6.85,74.94.89.96,2.13,1.3,3.74,1.05,6.06-.98,15.13-12,27.2-33.07,9.46-16.51,19.05-36.24,28.78-59.14l-385.84-231.5-342.29,231.87-20.21,277.89c3.47-5.22,7.23-10.19,11.37-14.81,13.88-15.5,29.77-23.96,47.66-25.38,13.91-1.14,25.61,2.51,35.12,10.95,9.5,8.44,12.66,20.97,9.48,37.59-4.8,24.75-21.07,44.2-48.8,58.37l-9.66-17.39c20.82-11.59,33.7-24.83,38.62-39.71,3.2-9.66,2.76-17.24-1.32-22.71-4.08-5.47-9.96-7.91-17.65-7.31-7.68.59-15.89,3.33-24.62,8.22-13.26,8.54-23.59,20.82-30.99,36.83-7.39,16.01-11.52,32.18-12.36,48.51-.85,16.33.62,31.7,4.4,46.1,2.39,9.13,6.21,17.57,11.49,25.32,5.28,7.75,11.72,13.12,19.34,16.1,11.12,4.25,23.48,2.63,37.1-4.87,11.11-6,22.93-14.72,35.45-26.16,12.52-11.44,21.6-20.41,27.24-26.9,3.91-4.5,6.8-7.91,8.71-10.29l11.99-144.98,21.11,1.54-16.53,170.11,43.72-100.09,21.09,4.84c-.5,20.76,1.49,43.09,5.98,66.97,4.48,23.89,10.11,38.68,16.88,44.36,3.99,3.2,8.16,2.35,12.49-2.56,5.26-5.97,10.72-15.22,16.39-27.75,5.67-12.54,10.3-23.81,13.91-33.81,2.05-5.69,5-14.11,8.86-25.26.64-3.83,1.51-7.74,2.62-11.73,4.41-15.81,11.27-27.76,20.58-35.84,6.44-5.43,13.3-8.59,20.57-9.49,7.27-.9,13.89-.41,19.86,1.47,5.97,1.87,10.62,4.55,13.92,8.05,12.22,13.41,13.47,29.68,3.74,48.81-7.36,14.54-25.57,29.83-54.65,45.85,5.94,10.76,13.42,16.32,22.45,16.7,7.39.45,14.53-.97,21.41-4.27,6.88-3.31,13.34-8.1,19.37-14.38,6.03-6.28,12-13.83,17.9-22.65,5.9-8.82,11.76-18.45,17.58-28.9,5.82-10.46,11.9-21.59,18.23-33.41.95-1.95,1.7-3.42,2.27-4.43.2-.55.39-1.11.6-1.66,4.11-10.82,9.57-18.97,16.37-24.45,5.05-5.03,11.95-8.2,20.7-9.52,8.75-1.31,16.03.67,21.82,5.96,3.87,3.59,6.58,8.23,8.14,13.92,1.56,5.7,2.2,10.54,1.92,14.51-.27,3.97-.82,7.41-1.64,10.28l-19.85-3.94c.32-3.71.47-7.31.46-10.78.12-4.96-1.66-8.02-5.32-9.16-3.66-1.15-7.92.22-12.79,4.12-6.65,5.28-11.49,15.02-14.51,29.23-3.02,14.21-3.51,27.65-1.47,40.31,1.58,9.81,4.92,17.24,10.03,22.27,5.11,5.03,10.33,7.03,15.65,5.99,6.57-1.24,12.97-3.83,19.2-7.76,6.23-3.93,12.29-9.48,18.18-16.65,5.89-7.18,10.96-13.75,15.21-19.75,4.25-5.99,9.01-14.26,14.26-24.8,5.26-10.55,9.08-18.35,11.47-23.4.58-1.22,1.22-2.6,1.94-4.13,1.43-4.29,3.11-8.48,5.13-12.52,1.04-2.12,2.18-4.13,3.36-6.1.08-.18.16-.34.24-.52l.06.03c4.88-7.95,10.91-14.62,18.14-19.97,9.16-6.78,18.82-10.99,28.98-12.62l5.06,19.49c-16.3,4.46-28.35,13.17-36.14,26.13-6.21,10.33-9.57,21.85-10.08,34.57-.52,12.71,2.07,23.64,7.75,32.79,3.45,5.48,8.52,9.43,15.22,11.82,6.7,2.4,13.62,2.48,20.76.23,10.62-3.36,18.3-12.46,23.05-27.32-4.39-1.12-7.07-1.88-8.05-2.27-9.28-3.08-16.13-7.56-20.55-13.43-4.42-5.87-6.48-11.81-6.16-17.81.31-6,2.07-11.59,5.26-16.77,3.19-5.18,7.17-8.89,11.94-11.12,9.53-4.46,18.17-3.34,25.94,3.37,7.76,6.71,12.32,18.29,13.69,34.71.06.36.1.9.12,1.63.02.72.07,1.27.12,1.63,19.37-6.96,39.05-30.26,59.01-69.89l15.38,6.86c-23.92,50.34-49.38,78.04-76.38,83.12-2.47,10.83-6.87,20.41-13.21,28.76-6.34,8.34-13.67,14-21.97,16.99-11.25,4.01-22.62,4.42-34.11,1.24-11.49-3.18-20.57-10.09-27.22-20.73-4.49-8-7.53-16.37-9.14-25.1-2.35,4.32-4.57,8.15-6.65,11.45-3.87,6.11-8.74,13.08-14.62,20.88-5.88,7.81-11.55,14.08-17.01,18.8-5.46,4.72-11.65,8.87-18.58,12.46-6.93,3.59-13.99,5.77-21.18,6.57-7.55.85-14.64-1.13-21.26-5.91-6.63-4.79-11.84-10.76-15.65-17.93-3.81-7.17-6.31-14.49-7.52-21.99-.49-3.05-.84-6.19-1.09-9.41-3.83,6.97-7.47,13.2-10.88,18.61-3.79,6.01-7.83,11.87-12.13,17.6-4.29,5.73-8.49,10.61-12.6,14.66-4.11,4.05-8.45,7.77-13.03,11.16-4.58,3.39-9.23,6.02-13.97,7.88-4.73,1.86-9.69,3.2-14.86,4.04-5.17.83-10.53,1.06-16.09.67-11.7-1.04-21.36-6.21-28.99-15.51-5.45-6.65-9.67-14.61-12.69-23.86-.45,1.26-.88,2.46-1.28,3.6-2.97,8.26-6.76,17.11-11.37,26.54-4.61,9.44-9.46,17.12-14.54,23.07-3.86,4.46-7.8,8.07-11.84,10.83-4.04,2.75-8.85,4.17-14.41,4.25-5.57.07-10.79-1.97-15.67-6.12-7.81-6.42-14.29-18.88-19.46-37.36-5.17-18.47-8.04-37.45-8.62-56.94l-47.18,105.87-20.5-6.31,2.92-35.37c-1.06,1.22-2.1,2.42-3.11,3.56-6.04,6.82-13.41,14.46-22.11,22.91-8.7,8.45-17.68,15.47-26.94,21.08-9.25,5.61-18.54,9.62-27.84,12.03-12.46,3.29-23.9,2.75-34.3-1.61-13.34-5.53-24.17-15.96-32.49-31.27-.67-1.22-1.27-2.48-1.9-3.73l-13.44,184.82,806.03-143.54Z"/>
    <path class="st0" d="M478.21,706.08c19.4-11.36,32.6-22,39.61-31.91,4.46-6.39,6.77-12.48,6.94-18.27.17-5.79-1.75-10.29-5.74-13.49-3.37-2.75-7.72-3.6-13.04-2.57-5.32,1.04-10.1,3.73-14.35,8.07-5.35,5.44-9.41,14.05-12.17,25.84-2.77,11.79-3.21,22.39-1.33,31.78l.09.54Z"/>
  </g>
</svg>